# xmcd
#
# Track frame offsets: 
#        150
#        9315
#        20587
#        31725
#        43300
#        56520
#        68157
#        79252
#        91182
#        101829
#        114579
#        124950
#        136810
#        153985
#        166180
#
# Disc length: 2409 seconds
#
# Revision: 2
# Processed by: cddbd v1.5.2PL0 Copyright (c) Steve Scherf et al.
# Submitted via: ExactAudioCopy v0.99pb5
#
DISCID=bc09670f
DTITLE=Various Artist - Classic Country Vol. 15 The Sixties Legends Disc 2
DYEAR=1999
DGENRE=Country
TTITLE0=Marty Robbins - Ruby Ann
TTITLE1=Willie Nelson - The Party's Over
TTITLE2=Buck Owens - Excuse Me (I Think I've Got A Heartache)
TTITLE3=Ernest Tubb - Thanks A Lot
TTITLE4=Loretta Lynn - Woman Of The World (Leave My World Alone)
TTITLE5=Conway Twitty - Darling You Know I Wouldn't Lie
TTITLE6=Eddy Arnold - Somebody Like Me
TTITLE7=Kitty Wells - Heartbreak U.S.A.
TTITLE8=Flatt And Scruggs - Foggy Mountain Breakdown
TTITLE9=Johnny Cash - The One On The Right Is On The Left
TTITLE10=Elvis Presley - Guitar Man
TTITLE11=Hank Snow - Ninety Miles An Hour (Down A Dead End Street)
TTITLE12=Charley Pride - (I'm So) Afraid Of Losing You Again
TTITLE13=Dottie West - Would You Hold It Against Me
TTITLE14=Porter Wagoner - The Cold Hard Facts Of Life
EXTD=
EXTT0=
EXTT1=
EXTT2=
EXTT3=
EXTT4=
EXTT5=
EXTT6=
EXTT7=
EXTT8=
EXTT9=
EXTT10=
EXTT11=
EXTT12=
EXTT13=
EXTT14=
PLAYORDER=
